# Blender 3.5.1
# www.blender.org
mtllib A2.mtl
o A2
v -26.409714 28.440182 11.486809
v -28.547001 28.294390 12.595385
v -28.175419 28.406639 12.208361
v -24.513317 28.498186 11.218519
v -24.249126 28.257978 11.155827
v -29.443398 28.641821 13.423220
v -29.174915 28.575832 14.290649
v -24.199429 28.574213 12.639643
v -30.506508 28.466099 13.590530
v -26.948841 28.546638 14.253258
v -30.449551 28.538054 13.933464
v -30.089779 28.352880 13.554806
v -29.598072 28.214348 12.869352
v -24.140278 28.392471 13.404123
v -21.940605 28.213009 12.287647
v -24.907360 28.270351 12.469414
v -22.629501 28.047464 11.075107
v -22.250420 28.179066 11.281127
v -21.940777 28.205799 11.970531
v -20.200695 27.492105 11.417120
v -21.902416 28.263380 11.947134
v -20.171661 27.734655 11.335661
v -30.960403 27.959730 13.577671
v -31.273579 27.840170 13.217150
v -28.382626 27.979240 13.642414
v -32.862404 28.022509 12.974514
v -32.824623 27.892332 12.549829
v -33.128872 28.042143 12.553783
v -32.066231 27.742884 11.767323
v -30.867680 27.927259 11.847925
v -26.523609 28.107367 12.259930
v -23.272873 27.797052 11.220466
v -26.424667 28.031649 10.766644
v -22.910870 27.835201 11.973936
v -25.941315 27.901770 13.261456
v -23.102093 27.811651 11.752028
v -22.780773 27.780426 11.799139
v -23.480347 27.698999 10.936045
v -23.842033 27.610325 10.841930
v -23.151897 27.758301 12.253145
v -20.993797 27.442995 11.485404
v -20.997269 27.247828 11.444939
v -20.955818 27.501650 11.326256
v -24.275810 27.725672 10.714102
v -25.967522 27.792248 10.716851
v -28.533146 27.866793 10.904418
v -29.831696 28.575006 10.581432
v -31.378075 28.666689 10.816616
v -29.730801 28.743877 10.656467
v -28.300224 28.469030 10.769586
v -29.370705 28.531914 11.007372
v -32.444920 29.029779 11.769329
v -30.476398 28.987734 11.815056
v -28.621155 28.429987 11.353563
v -29.432854 28.783115 11.849047
v -28.491013 28.651539 11.735165
v -27.484524 28.059948 11.608196
v -27.639439 28.194975 11.712215
v -27.130890 28.118046 11.388652
v -27.054497 28.181673 11.328485
v -27.066971 28.116974 11.144428
v -26.070599 27.798498 10.872320
v -33.346725 29.144585 11.394435
v -32.062450 29.024801 10.993412
v -30.961800 28.682955 9.706614
v -33.364796 28.859533 10.547327
v -32.177437 29.041578 10.157769
v -32.206177 28.643089 10.725990
v -29.561035 28.669668 9.532163
v -27.401394 28.588055 10.280847
v -28.384045 28.794748 10.090885
v -28.173615 28.501266 10.807022
v -27.866474 28.454758 11.409228
v -27.194447 28.475266 10.509499
v -29.529629 28.658245 11.175294
v -27.376606 28.379988 11.047321
v -27.971310 28.808371 11.389084
v -26.034660 27.575733 10.876914
v -27.349113 28.477737 10.745728
v -27.398705 28.542065 10.972610
v -26.018341 27.768341 10.809006
v -28.531387 28.932920 11.430522
v -29.061867 28.866301 11.550611
v -32.555676 28.925531 11.198811
v -30.372757 29.081287 11.224340
v -33.669430 28.976368 10.836116
v -33.642605 28.996199 10.642480
v -28.936977 28.892200 7.857063
v -28.621876 28.744026 8.085978
v -28.119469 28.910147 8.014361
v -31.058365 28.928719 8.081661
v -27.651588 29.012865 8.386240
v -33.418560 29.069254 8.250067
v -29.346691 29.143419 10.021832
v -26.120140 28.716234 9.301618
v -26.862881 28.838007 8.614761
v -27.424885 29.061771 10.199625
v -26.033257 28.729454 10.195072
v -26.156559 28.716080 10.463638
v -27.850620 29.013136 10.407324
v -26.196129 28.546391 10.092149
v -28.748219 28.859852 9.453759
v -33.061195 28.873877 8.984099
v -27.645428 28.694273 8.638943
v -33.333954 28.866863 8.157888
v -26.319832 28.538343 9.256392
v -25.991837 28.626616 9.726482
v -26.037510 28.683500 10.279387
v -25.179268 27.672052 10.819097
v -25.084778 27.867632 10.752990
v -34.112648 28.988081 8.479409
v -34.036232 29.068676 8.643151
v -32.537807 29.018867 9.267426
v -29.947247 28.875885 6.657828
v -31.990406 28.805597 7.055422
v -32.872986 29.041443 7.329461
v -28.636635 28.917192 6.613337
v -28.430435 28.752939 6.815125
v -25.931366 28.684523 8.010726
v -27.110207 28.659363 7.745016
v -28.216873 28.763725 7.976273
v -27.725422 28.912424 6.838793
v -27.035095 28.957264 7.222923
v -25.695232 28.704773 9.394342
v -25.649117 28.660105 9.322986
v -27.775921 29.048817 9.263729
v -29.460304 29.159536 8.730198
v -33.303169 29.036989 7.688466
v -30.423470 29.043568 8.425176
v -32.651188 28.856318 7.803265
v -33.381073 28.939272 7.552699
v -25.838364 28.654350 9.540739
v -25.693157 28.484797 9.104750
v -25.571602 28.476841 8.581822
v -25.537827 28.589529 8.497477
v -24.477890 27.880688 10.243641
v -24.254318 27.950850 10.280691
v -24.522907 28.171648 10.022453
vn 0.0049 -0.9968 -0.0801
vn -0.3755 0.0293 -0.9264
vn -0.3114 0.1078 -0.9442
vn -0.1084 -0.5807 -0.8069
vn -0.1112 0.9821 -0.1517
vn -0.0339 0.7318 -0.6807
vn 0.1082 0.9920 0.0652
vn -0.0722 0.1200 0.9901
vn 0.1299 0.0527 0.9901
vn -0.7621 0.1386 0.6324
vn -0.9751 -0.0217 -0.2209
vn -0.1315 -0.9738 0.1857
vn -0.4321 -0.6069 -0.6670
vn 0.3625 -0.0568 0.9303
vn 0.4626 -0.0363 0.8858
vn -0.0170 -0.9970 0.0754
vn 0.2188 -0.4418 -0.8700
vn 0.7619 0.1144 -0.6375
vn 0.0948 -0.9562 -0.2770
vn 0.6423 -0.7549 -0.1323
vn 0.3637 0.7919 -0.4906
vn 0.8126 0.2949 -0.5027
vn 0.0366 0.0875 0.9955
vn -0.0973 0.0723 0.9926
vn -0.0728 -0.9722 0.2226
vn -0.5359 0.1553 0.8299
vn -0.3192 -0.9463 0.0519
vn -0.9724 0.2026 -0.1160
vn -0.3615 -0.2939 -0.8848
vn -0.0701 0.9549 -0.2884
vn 0.0371 0.9983 0.0452
vn 0.8611 0.2962 -0.4132
vn -0.0216 0.7275 -0.6857
vn 0.7791 0.1141 -0.6164
vn 0.2709 -0.0185 0.9624
vn 0.1942 0.9694 0.1501
vn 0.4345 -0.2207 0.8732
vn -0.2944 0.1103 -0.9493
vn 0.6519 -0.1351 -0.7462
vn 0.2076 -0.7700 -0.6033
vn 0.6665 0.3212 0.6727
vn 0.4663 -0.8830 -0.0534
vn 0.6108 0.4351 -0.6615
vn 0.1072 0.1450 -0.9836
vn -0.0508 -0.5653 -0.8233
vn -0.2143 0.0250 -0.9764
vn -0.0750 -0.4928 -0.8669
vn -0.1215 -0.9867 0.1083
vn -0.2144 -0.6904 -0.6909
vn 0.1100 0.7733 -0.6244
vn 0.2548 -0.0007 -0.9670
vn -0.2370 -0.9714 0.0120
vn -0.2904 -0.0256 0.9566
vn 0.1471 0.3016 0.9420
vn -0.0798 -0.0129 0.9967
vn 0.2529 0.8028 0.5399
vn 0.2138 -0.0292 0.9764
vn 0.1902 -0.8429 0.5034
vn 0.4535 -0.5881 0.6697
vn 0.5114 0.7734 0.3746
vn 0.0993 -0.1426 -0.9848
vn 0.8854 -0.2973 -0.3574
vn -0.9907 0.1342 0.0222
vn -0.1547 0.6370 -0.7552
vn -0.3929 -0.7098 -0.5847
vn -0.2091 0.7447 -0.6338
vn -0.1463 -0.3898 -0.9092
vn -0.1192 -0.9834 0.1368
vn 0.0767 -0.1224 -0.9895
vn 0.2115 0.8838 -0.4174
vn 0.6887 0.0283 -0.7245
vn -0.0704 -0.9942 -0.0814
vn -0.0737 -0.9096 0.4088
vn 0.2807 -0.6550 0.7015
vn 0.2621 -0.6045 0.7523
vn 0.9381 -0.1423 -0.3159
vn 0.3785 0.6976 0.6084
vn 0.5127 0.8195 0.2560
vn 0.5934 -0.7943 0.1304
vn 0.4759 0.8782 0.0482
vn 0.9428 0.1979 -0.2682
vn -0.0909 0.0894 0.9918
vn 0.1725 0.8567 0.4861
vn -0.0001 0.9498 0.3129
vn -0.2516 0.0368 0.9671
vn -0.8592 0.0831 0.5049
vn -0.8592 0.2795 -0.4285
vn 0.0579 -0.9214 -0.3843
vn -0.0061 0.3712 -0.9285
vn -0.0355 0.1401 -0.9895
vn 0.2810 0.1364 -0.9500
vn 0.2067 0.9189 -0.3360
vn -0.1853 0.2535 0.9494
vn -0.1547 0.7822 -0.6036
vn 0.1372 0.9698 0.2014
vn 0.8308 0.2962 -0.4712
vn 0.5501 0.1640 -0.8189
vn 0.2381 0.1237 0.9633
vn 0.7371 0.6726 0.0651
vn -0.2209 0.0663 0.9730
vn 0.1602 -0.9645 0.2098
vn -0.0915 -0.9678 0.2345
vn -0.2418 -0.8136 0.5287
vn 0.0299 -0.9843 -0.1738
vn 0.3150 -0.8780 -0.3604
vn -0.1998 -0.5511 -0.8102
vn 0.9588 -0.2621 -0.1093
vn -0.0650 -0.9878 -0.1418
vn 0.2941 -0.8874 0.3550
vn 0.9967 -0.0098 0.0802
vn -0.9529 -0.1315 -0.2734
vn -0.7496 0.3738 0.5463
vn -0.2492 0.1338 0.9592
vn 0.0672 -0.9124 -0.4037
vn -0.2042 -0.5867 -0.7836
vn -0.1028 -0.0271 -0.9943
vn -0.2928 0.6034 -0.7417
vn 0.0707 0.2839 -0.9563
vn 0.3460 0.1615 -0.9242
vn 0.6717 0.0869 -0.7357
vn -0.0177 -0.9940 -0.1080
vn -0.0884 -0.9878 0.1280
vn 0.4781 0.5383 -0.6940
vn -0.1992 0.7480 0.6331
vn 0.3147 0.9413 0.1221
vn 0.9800 0.1664 -0.1095
vn -0.2288 0.2094 0.9507
vn -0.6950 0.4277 0.5780
vn -0.1439 -0.7251 0.6734
vn -0.1941 -0.7976 0.5712
vn -0.9541 -0.2208 -0.2023
vn -0.0652 -0.0818 0.9945
vn 0.3700 -0.8970 0.2418
vn 0.5991 -0.7941 -0.1025
vn 0.8951 0.2671 -0.3571
vn -0.0450 -0.8884 0.4570
vn 0.8899 -0.1928 0.4134
vn 0.7171 0.5712 -0.3993
vt 0.530901 0.639089
vt 0.495224 1.000000
vt 0.227656 0.921299
vt 0.234336 0.223585
vt 0.936312 0.305588
vt 0.200580 0.392349
vt 0.000000 0.274600
vt 0.797121 0.183223
vt 0.814359 0.982892
vt 0.776047 0.013716
vt 0.827345 0.816142
vt 0.183347 0.043263
vt 0.763627 0.000000
vt 0.916208 0.014582
vt 0.162610 0.427655
vt 0.746019 0.386039
vt 0.179025 0.059516
vt 0.815314 0.309008
vt 0.000000 0.214754
vt 1.000000 0.805222
vt 0.184784 0.554648
vt 0.513125 0.029077
vt 0.467411 0.369308
vt 0.565110 1.000000
vt 0.017031 0.347509
vt 0.975358 0.439043
vt 0.051787 0.809550
vt 0.250034 0.955629
vt 0.909535 0.965853
vt 0.011939 0.212042
vt 0.894695 0.797126
vt 0.021072 0.779703
vt 0.160278 0.454287
vt 0.878042 0.978407
vt 0.681050 1.000000
vt 0.000205 0.458036
vt 0.998630 0.870854
vt 0.966403 0.455998
vt 0.773398 0.583902
vt 0.992567 0.061685
vt 0.992041 0.634860
vt 0.133943 0.721780
vt 0.408268 0.495449
vt 0.998723 0.659082
vt 0.828137 0.478283
vt 0.947769 0.519675
vt 0.803537 0.211866
vt 0.996888 0.169004
vt 0.828161 0.080337
vt 0.662278 0.470507
vt 0.751119 0.880780
vt 0.241850 1.000000
vt 0.258001 0.950756
vt 0.514053 0.008251
vt 0.384927 0.354146
vt 0.552285 1.000000
vt 0.916758 0.460319
vt 0.191160 0.000000
vt 0.921619 0.904520
vt 0.184627 0.950254
vt 0.055287 0.859032
vt 0.999893 0.442300
vt 0.161488 0.413096
vt 0.839876 0.734354
vt 0.029206 0.554975
vt 0.028502 0.089456
vt 0.782754 0.043476
vt 0.154950 0.863542
vt 0.122349 0.093787
vt 0.241850 0.000000
vt 0.761670 0.352608
vt 0.526785 0.427288
vt 0.997405 0.408238
vt 0.747257 0.157027
vt 0.763608 0.983363
vt 1.000456 -0.005381
vt 0.002650 0.000000
vt 0.928042 0.000000
vt 0.855643 0.009772
vt 0.158867 0.434618
vt 0.681050 1.000000
vt 1.000000 0.201589
vt 0.800817 0.236222
vt 0.795231 0.150266
vt 0.272951 0.599783
vt 0.998955 0.089059
vt 0.999099 0.791057
vt 0.125058 0.843622
vt 0.995088 0.775200
vt 0.162145 1.000000
vt 0.988495 0.103052
vt 0.956771 0.474908
vt -0.000994 0.381392
vt 0.952421 0.053574
vt 0.951874 0.494343
vt 0.793092 0.109071
vt 0.000000 0.466068
vt 0.962830 0.534137
vt 0.752516 0.035558
vt 0.779137 0.646125
vt 0.482241 0.514332
vt 0.461436 0.716099
vt 0.936488 0.941402
vt 0.137031 0.891167
vt 0.144134 0.068922
vt 0.457025 0.971755
vt 0.499485 0.277697
vt 0.756231 0.950833
vt 0.000000 0.000000
vt 0.777094 0.088769
vt 0.753038 0.918530
vt 0.650265 1.000000
vt 0.612307 0.386590
vt 0.198314 0.000000
vt 0.187439 0.971697
vt 0.507783 0.987188
vt 0.496889 0.430366
vt 0.510359 0.070460
vt 0.156685 1.000000
vt 0.795444 0.615987
vt 0.680222 1.006080
vt 0.330107 0.732220
vt 0.169081 0.090569
vt 0.854040 0.072295
vt 0.004634 0.785278
vt 0.988414 0.767487
vt 0.787460 0.769262
vt 0.028462 0.479734
vt 0.912194 0.465047
vt 0.528437 0.504392
vt 0.998173 0.572294
vt 0.433893 0.022433
vt 0.277692 0.387043
vt 0.960743 -0.000048
vt 0.412181 0.307594
vt 0.110048 0.566432
vt 0.000000 0.797681
vt 0.028757 0.782101
vt 0.842997 0.058992
vt 0.043706 0.012575
vt 1.000000 0.549200
vt 0.190783 0.627089
vt 0.237891 0.019399
vt 0.020372 0.851736
vt 0.221781 0.769266
vt 0.064084 0.014829
vt 0.077311 0.602056
vt 0.744233 0.201276
vt 0.856015 1.000000
vt 0.200331 0.918359
vt 0.461059 0.603253
vt 0.421821 0.034964
vt 0.267933 1.000000
vt 0.945550 0.746083
vt 0.923283 0.022927
vt 0.937607 0.962332
vt 0.716660 0.100348
vt 0.718303 0.927365
vt 0.829503 0.520733
vt 0.970931 0.871232
vt 0.903459 0.652810
vt 0.024339 0.649448
vt 0.999087 0.220824
vt 0.096288 0.394992
vt 1.000000 0.959507
vt 0.340652 0.918361
vt 0.640999 0.911119
vt 1.000000 0.558796
vt 0.546932 0.666245
vt 0.963100 0.118936
vt 0.045173 0.080194
vt 0.888505 0.084030
vt 0.521766 0.446862
vt 0.314522 0.294548
vt 0.990197 0.664601
vt 0.491626 0.012111
vt 1.000000 0.510606
vt 0.344361 0.268043
vt 0.161763 0.092655
vt 0.853830 0.023408
vt 0.236012 0.457349
vt 0.789927 0.611372
vt 0.272404 1.000000
vt 0.496775 0.122730
vt 0.530333 0.074063
vt 0.988800 0.442322
vt 0.000014 0.424206
vt 0.000000 0.220701
vt 0.130478 0.420239
vt 0.491385 0.456698
vt 0.465891 0.966735
vt 0.428172 0.032457
vt 0.565276 0.806154
vt 0.623025 0.473796
vt 0.203086 0.903137
vt 0.854535 0.168127
vt 0.127405 0.131194
vt 0.690845 0.909641
vt 0.715021 0.129780
vt 0.511601 0.378257
vt 0.002538 0.696598
vt 0.575117 0.062890
vt 0.375594 0.742672
vt 0.907027 0.957150
vt 0.991873 0.313204
vt 0.092280 0.293121
vt 0.844576 0.439342
vt 0.868105 0.124114
vt 0.138474 0.120835
vt 0.994815 0.295066
vt 0.792282 0.256166
vt 0.000417 0.168050
vt 0.989910 0.393848
vt 0.930797 1.000403
vt 0.154383 0.440857
vt 0.000000 0.898275
vt 0.947766 0.797770
vt 0.677113 0.837697
vt 0.327844 1.000000
vt 0.544070 1.000000
vt 0.668014 0.771580
vt 0.131201 0.945321
vt 0.856284 0.849545
vt 0.796205 0.943612
vt 0.778149 0.127646
vt 0.027334 0.227368
vt 0.635647 0.740666
vt 0.004964 0.861455
vt 0.984314 0.163317
vt 0.979705 0.810515
vt 0.081611 0.804539
vt 0.430370 0.544330
vt 0.835830 0.532943
vt 0.980758 0.507191
vt 0.849474 0.201789
vt 0.000000 0.844664
vt 1.000000 0.701090
vt 0.140537 0.664698
vt 0.074197 0.453559
vt 0.099354 0.144929
vt 0.984376 0.511780
vt 0.783527 0.606363
vt 0.257560 0.522115
vt 0.009482 0.799416
vt 0.000487 0.204414
vt 0.856416 0.808593
vt 0.009652 0.385998
vt 0.004104 0.511585
vt 0.807204 0.000000
vt 0.380639 0.447423
vt 0.469619 0.467865
vt 0.473054 1.000000
vt 0.516053 0.744905
vt 0.452188 0.046728
vt 0.953784 0.999386
vt 0.918742 0.569653
vt 0.012798 0.151743
vt 0.785966 0.137420
vt 0.776627 1.000000
vt 0.345495 1.000000
vt 0.672634 0.666832
vt 0.618670 0.523148
vt 0.738321 0.341373
vt 0.776836 0.941751
vt 0.998096 0.126566
vt 0.001678 0.079264
vt 0.881158 0.001971
vt 0.993829 0.317534
vt 0.816103 0.413548
vt 0.826118 0.137190
vt 0.178136 0.560593
vt 0.805976 0.989019
vt 0.634264 0.038247
vt 0.391820 0.095007
vt 0.991059 0.444259
vt 0.033007 0.477369
vt 0.496598 0.970336
vt 0.551267 0.694035
vt 0.884772 0.851521
vt 0.190276 0.968765
vt 0.997302 0.708141
vt 0.008578 0.885426
vt 0.108991 0.687984
vt 0.001245 0.547343
vt 0.939546 0.541269
vt 0.663849 0.787282
vt 0.992212 0.549507
vt 0.985972 0.148037
vt 0.987761 0.839182
vt 0.230009 0.753727
vt 1.000000 0.562781
vt 0.148614 0.501553
vt 0.927587 0.519964
vt 0.939893 0.077798
vt 0.782996 0.069514
s 1
usemtl acula
f 2/3/1 3/6/2 1/1/3
f 1/1/3 5/11/4 2/3/1
f 3/6/2 6/12/5 1/1/3
f 5/11/4 1/1/3 4/8/6
f 6/15/5 4/9/6 1/2/3
f 6/15/5 8/18/7 4/9/6
f 6/13/5 7/16/8 10/23/9
f 7/16/8 6/13/5 11/26/10
f 3/5/2 9/21/11 6/14/5
f 6/15/5 10/22/9 8/18/7
f 11/25/10 6/15/5 9/19/11
f 12/29/12 7/16/8 11/26/10
f 9/20/11 12/29/12 11/26/10
f 2/4/1 10/24/9 12/27/12
f 13/30/13 2/4/1 12/27/12
f 13/31/13 12/28/12 9/21/11
f 7/16/8 12/29/12 10/23/9
f 3/5/2 13/31/13 9/21/11
f 2/3/1 13/32/13 3/6/2
f 14/33/14 8/17/7 10/23/9
f 2/4/1 14/35/14 10/24/9
f 14/33/14 15/36/15 8/17/7
f 16/39/16 15/37/15 14/34/14
f 2/4/1 16/39/16 14/35/14
f 5/10/4 17/40/17 16/39/16
f 15/37/15 16/39/16 17/40/17
f 2/4/1 5/10/4 16/39/16
f 18/43/18 17/42/17 4/7/6
f 19/45/19 17/42/17 18/43/18
f 4/8/6 17/41/17 5/11/4
f 19/45/19 15/38/15 17/42/17
f 20/46/20 15/38/15 19/45/19
f 21/47/21 19/45/19 18/43/18
f 20/46/20 19/45/19 21/47/21
f 21/47/21 15/38/15 22/49/22
f 20/46/20 21/47/21 22/49/22
f 8/18/7 21/48/21 18/44/18
f 15/38/15 21/48/21 8/18/7
f 22/49/22 15/38/15 20/46/20
f 4/9/6 8/18/7 18/44/18
f 25/55/23 23/50/24 24/51/25
f 24/51/25 23/50/24 26/57/26 27/59/27
f 26/57/26 23/50/24 25/55/23
f 26/57/26 28/62/28 27/59/27
f 28/63/28 26/58/26 25/54/23
f 29/64/29 28/63/28 30/67/30
f 29/64/29 27/60/27 28/63/28
f 31/71/31 30/68/30 28/63/28
f 25/54/23 31/71/31 28/63/28
f 32/73/32 33/75/33 31/71/31
f 31/71/31 36/82/34 32/73/32
f 35/80/35 31/70/31 25/55/23
f 31/71/31 33/75/33 30/68/30
f 34/78/36 31/71/31 35/79/35
f 31/71/31 34/76/36 36/82/34
f 40/92/37 36/83/34 37/84/38
f 36/83/34 34/78/36 37/84/38
f 32/72/32 36/83/34 38/85/39
f 36/83/34 39/88/40 38/85/39
f 39/88/40 36/83/34 40/92/37
f 41/94/41 40/92/37 42/95/42
f 41/94/41 34/78/36 40/92/37
f 40/92/37 37/84/38 42/95/42
f 35/80/35 39/90/40 40/93/37
f 34/77/36 35/80/35 40/93/37
f 43/96/43 41/94/41 42/95/42
f 42/95/42 37/84/38 43/96/43
f 41/94/41 43/96/43 34/78/36
f 37/84/38 34/78/36 43/96/43
f 38/85/39 39/88/40 44/97/44
f 45/100/45 44/98/44 39/89/40
f 35/80/35 24/52/25 39/90/40
f 39/91/40 24/53/25 45/99/45
f 24/53/25 29/66/29 45/99/45
f 46/101/46 45/100/45 29/65/29
f 45/100/45 33/74/33 44/98/44
f 45/100/45 46/101/46 33/74/33
f 29/65/29 30/69/30 46/101/46
f 30/69/30 33/74/33 46/101/46
f 38/86/39 44/98/44 33/74/33
f 38/87/39 33/75/33 32/73/32
f 24/53/25 35/81/35 25/56/23
f 27/61/27 29/66/29 24/53/25
usemtl Lesser_coverts
f 47/102/47 51/112/48 48/104/49
f 49/107/50 47/102/47 48/104/49
f 47/102/47 49/107/50 50/108/51
f 47/102/47 50/108/51 51/112/48
f 51/113/48 50/110/51 54/120/52
f 48/105/49 51/113/48 52/115/53
f 53/116/54 52/115/53 51/113/48
f 55/121/55 53/116/54 51/113/48
f 55/121/55 51/113/48 54/120/52
f 53/117/54 55/122/55 56/123/56
f 58/128/57 56/123/56 55/122/55
f 55/122/55 57/125/58 58/128/57
f 57/125/58 55/122/55 54/119/52
f 59/130/59 58/129/57 57/127/58
f 58/129/57 59/130/59 60/132/60
f 58/129/57 60/132/60 56/124/56
f 60/132/60 61/133/61 50/109/51
f 60/131/60 50/111/51 56/124/56
f 62/135/62 61/133/61 60/132/60
f 59/130/59 62/135/62 60/132/60
f 62/135/62 59/130/59 61/133/61
f 61/134/61 57/126/58 54/120/52
f 61/133/61 59/130/59 57/127/58
f 50/110/51 61/134/61 54/120/52
f 49/106/50 56/124/56 50/111/51
f 49/106/50 53/118/54 56/124/56
f 63/136/63 52/114/53 53/118/54
f 63/136/63 53/118/54 64/138/64
f 53/118/54 49/106/50 64/138/64
f 64/139/64 48/103/49 63/136/63
f 49/107/50 48/104/49 64/140/64
f 48/105/49 52/115/53 63/137/63
f 66/145/65 67/148/66 65/141/67
f 66/144/65 65/143/67 68/150/68
f 69/151/69 65/142/67 67/146/66
f 68/150/68 65/143/67 69/152/69
f 69/151/69 71/157/70 70/154/71
f 69/152/69 70/155/71 72/159/72
f 72/159/72 68/150/68 69/152/69
f 71/158/70 69/153/69 67/147/66
f 75/167/73 68/150/68 72/159/72
f 76/168/74 73/160/75 72/159/72
f 73/160/75 75/167/73 72/159/72
f 74/163/76 76/168/74 72/159/72
f 70/155/71 74/163/76 72/159/72
f 73/161/75 76/169/74 77/172/77
f 80/176/78 77/172/77 76/169/74
f 80/176/78 76/169/74 78/173/79
f 79/174/80 78/173/79 76/169/74
f 79/174/80 76/169/74 74/164/76
f 81/178/81 80/176/78 78/173/79
f 80/176/78 81/178/81 79/174/80
f 79/175/80 77/170/77 80/177/78
f 79/174/80 81/178/81 78/173/79
f 79/175/80 70/156/71 77/172/77
f 70/156/71 79/175/80 74/165/76
f 83/181/82 77/171/77 82/179/83
f 77/172/77 71/158/70 82/180/83
f 83/181/82 73/162/75 77/171/77
f 71/158/70 77/172/77 70/156/71
f 83/181/82 82/179/83 85/184/84
f 75/166/73 73/162/75 83/181/82
f 84/182/85 75/166/73 83/181/82
f 84/182/85 83/181/82 85/184/84
f 85/185/84 67/147/66 86/187/86
f 85/184/84 86/186/86 84/182/85
f 82/180/83 71/158/70 85/185/84
f 71/158/70 67/147/66 85/185/84
f 84/182/85 86/186/86 68/149/68
f 66/144/65 68/150/68 86/187/86
f 87/189/87 66/145/65 86/187/86
f 86/187/86 67/147/66 87/188/87
f 87/189/87 67/148/66 66/145/65
f 68/150/68 75/167/73 84/183/85
f 89/193/88 91/197/89 88/190/90
f 88/190/90 90/194/91 89/193/88
f 92/199/92 90/194/91 88/190/90
f 92/198/92 88/191/90 91/195/89
f 94/202/93 92/198/92 93/201/94
f 91/195/89 93/201/94 92/198/92
f 97/208/95 92/198/92 94/202/93
f 92/198/92 97/208/95 95/204/96
f 95/205/96 96/207/97 92/199/92
f 96/207/97 90/194/91 92/199/92
f 97/208/95 99/213/98 98/210/99
f 97/208/95 98/210/99 95/204/96
f 94/203/93 100/215/100 97/209/95
f 99/212/98 97/209/95 100/215/100
f 100/215/100 101/216/101 99/212/98
f 100/214/100 102/221/102 101/217/101
f 100/215/100 94/203/93 102/219/102
f 94/203/93 103/223/103 102/220/102
f 102/221/102 103/222/103 104/225/104
f 102/221/102 104/225/104 101/217/101
f 104/225/104 106/229/105 101/217/101
f 106/230/105 104/224/104 96/207/97
f 104/224/104 89/193/88 96/207/97
f 105/226/106 89/192/88 104/225/104
f 103/222/103 105/226/106 104/225/104
f 106/230/105 96/207/97 95/205/96
f 107/232/107 106/231/105 95/206/96
f 101/218/101 106/231/105 107/232/107
f 98/211/99 108/233/108 107/232/107
f 95/206/96 98/211/99 107/232/107
f 108/233/108 101/218/101 107/232/107
f 101/218/101 108/233/108 99/213/98
f 99/213/98 108/233/108 109/234/109
f 110/235/110 109/234/109 108/233/108
f 108/233/108 98/211/99 110/235/110
f 99/213/98 109/234/109 110/235/110
f 110/235/110 98/211/99 99/213/98
f 93/200/94 105/227/106 111/238/111
f 103/222/103 111/236/111 105/226/106
f 93/200/94 91/196/89 105/227/106
f 89/193/88 105/228/106 91/197/89
f 112/241/112 111/237/111 103/223/103
f 112/239/112 93/200/94 111/238/111
f 113/242/113 94/203/93 112/241/112
f 93/201/94 112/240/112 94/202/93
f 113/242/113 112/241/112 103/223/103
f 94/203/93 113/242/113 103/223/103
f 90/194/91 96/207/97 89/193/88
f 118/253/114 115/244/115 114/243/116
f 116/247/117 114/243/116 115/244/115
f 114/243/116 116/247/117 117/251/118
f 118/253/114 114/243/116 117/251/118
f 122/262/119 119/256/120 118/253/114
f 118/253/114 119/256/120 120/259/121
f 118/254/114 120/258/121 121/261/122
f 122/262/119 118/253/114 117/251/118
f 115/245/115 118/254/114 121/261/122
f 123/263/123 122/262/119 117/251/118
f 119/256/120 122/262/119 123/263/123
f 123/264/123 116/248/117 127/273/124
f 123/264/123 117/252/118 116/248/117
f 124/265/125 125/268/126 123/264/123
f 126/270/127 124/265/125 123/264/123
f 123/264/123 125/268/126 119/255/120
f 126/270/127 123/264/123 127/273/124
f 128/275/128 127/274/124 116/249/117
f 127/274/124 128/275/128 129/278/129
f 129/278/129 126/271/127 127/274/124
f 126/271/127 129/278/129 121/260/122
f 121/261/122 129/277/129 130/280/130
f 129/278/129 128/275/128 130/279/130
f 128/275/128 131/281/131 130/279/130
f 130/280/130 131/282/131 115/245/115
f 130/280/130 115/245/115 121/261/122
f 128/276/128 116/250/117 131/283/131
f 131/283/131 116/250/117 115/246/115
f 126/271/127 132/284/132 124/266/125
f 126/272/127 133/287/133 132/285/132
f 126/272/127 121/261/122 133/287/133
f 125/269/126 132/285/132 133/286/133
f 133/286/133 134/290/134 125/269/126
f 134/288/134 133/287/133 120/258/121
f 133/287/133 121/261/122 120/258/121
f 120/259/121 119/256/120 134/289/134
f 119/256/120 135/291/135 134/289/134
f 134/290/134 135/292/135 125/269/126
f 119/257/120 125/269/126 135/292/135
f 136/293/136 132/285/132 125/269/126
f 132/285/132 136/293/136 137/294/137
f 137/294/137 124/267/125 132/285/132
f 124/267/125 137/294/137 138/295/138
f 137/294/137 136/293/136 138/295/138
f 125/269/126 124/267/125 138/295/138
f 138/295/138 136/293/136 125/269/126
