# Blender 3.5.1
# www.blender.org
mtllib C2.mtl
o C2
v -17.364429 28.727879 -0.246150
v -16.549618 28.536654 2.583315
v -17.664490 28.901379 -0.901889
v -16.927441 28.457901 2.515958
v -19.149448 29.073446 0.320134
v -17.314487 28.835173 -0.324859
v -18.216034 29.334063 -1.322711
v -16.627796 28.682314 2.242380
v -18.176712 29.081875 2.748398
v -18.680183 29.270073 0.411425
v -19.083454 29.203304 3.173544
v -18.756283 29.350349 -1.104672
v -19.546070 29.289005 0.962440
v -19.332539 29.088089 3.593547
v -18.869991 28.193800 6.160980
v -18.531281 28.821699 3.137324
v -17.705631 27.925392 5.829546
v -19.163342 28.795141 4.719621
v -17.996574 28.113649 6.116755
v -18.328571 28.103514 6.394977
v -17.767284 28.653664 4.272020
v -17.333183 27.968529 5.614963
v -16.806793 27.910429 4.505488
v -17.067204 27.786541 4.883020
v -17.999298 27.867399 8.136083
v -17.883656 28.089489 8.189642
v -18.310001 28.057467 6.136710
v -14.750004 28.710268 -0.051082
v -14.972404 28.450968 2.250478
v -15.313520 29.021824 -1.399078
v -15.142958 28.786922 -1.195133
v -14.661554 28.673018 1.390525
v -14.805061 28.693275 1.903155
v -15.417854 27.940289 4.267539
v -15.039492 28.378838 3.034276
v -16.335655 28.391554 4.622071
v -16.810230 28.977667 3.316456
v -16.632851 28.196474 5.488008
v -17.443249 29.163465 2.272663
v -17.529667 28.894777 3.552620
v -16.943989 29.223433 2.147038
v -17.021233 28.228838 5.444386
v -17.085327 28.142653 5.401119
v -16.653851 28.197361 6.329971
v -16.407265 27.593418 7.476370
v -16.329952 27.619755 7.532600
v -16.582649 27.991573 6.478835
v -16.729946 28.067717 5.836471
v -16.669991 28.085608 5.549095
v -15.930397 27.827520 5.063014
v -16.214478 28.026678 5.332950
v -15.585415 27.825150 4.410449
v -15.387264 28.501362 2.150356
v -16.825089 29.375118 -2.170483
v -16.511108 29.350126 -2.287317
v -16.723827 29.194717 -1.941727
v -15.949760 29.101694 -2.078661
v -15.379986 28.923212 -1.571702
v -13.165783 28.752581 -0.701182
v -13.393944 28.562141 1.818412
v -13.986025 29.115973 -0.768585
v -13.817928 29.335476 -2.377367
v -13.451883 28.644739 2.118561
v -13.345995 28.850521 -1.784304
v -13.621199 28.452808 2.019733
v -14.182751 27.933329 3.856768
v -14.946089 29.082710 -0.957112
v -14.792446 28.601788 2.485015
v -14.639864 27.796925 4.412331
v -15.919456 29.160053 1.950912
v -15.333839 29.294323 -0.636253
v -16.095089 28.933615 3.168898
v -15.408550 29.191074 2.076721
v -14.472296 29.381605 -2.126399
v -14.943798 29.023977 2.577171
v -15.924446 28.218933 5.360923
v -14.659710 28.430515 3.710699
v -15.448906 28.218517 5.308033
v -15.710903 28.363020 5.971554
v -15.610928 28.202177 5.435529
v -15.080122 27.987314 5.078454
v -15.793594 28.135578 5.112502
v -14.632904 27.849958 4.633309
v -15.751106 28.072878 6.847442
v -15.817654 28.221045 6.830076
v -14.214912 29.236927 -2.175278
v -11.446827 28.573673 -0.147822
v -12.264174 28.401077 1.646187
v -11.300220 28.704115 -2.310143
v -12.252640 28.387220 2.130919
v -11.412079 28.836048 -1.835535
v -11.923016 28.632093 1.364466
v -13.486158 29.180521 1.064456
v -13.301819 28.737232 2.544448
v -11.829336 29.263535 -3.090434
v -12.143679 29.126961 -2.662087
v -12.915394 29.290895 -1.881831
v -11.562521 29.228706 -3.087836
v -12.846506 29.069927 -1.628501
v -13.967409 29.156488 1.021984
v -13.234453 28.562326 1.966352
v -14.343786 28.956017 2.325050
v -14.387491 28.252886 4.177498
v -14.098955 28.244259 4.244884
v -14.190224 28.190384 4.199323
v -15.026018 27.993696 6.460448
v -15.098015 27.835855 6.415078
v -13.470991 28.029737 3.878494
v -13.126915 27.885588 3.461170
v -14.582981 28.246231 5.124084
v -10.071388 28.533604 -1.057614
v -10.029280 28.775782 -2.432279
v -10.924994 28.411531 1.247498
v -10.457783 28.593822 0.226407
v -9.868050 28.603548 -2.826784
v -10.939659 28.384804 0.833680
v -12.015295 28.280376 1.820913
v -12.069626 28.784313 0.507160
v -11.858824 27.912086 2.501579
v -12.207899 28.013430 2.906024
v -12.853796 28.229607 3.217514
v -13.045773 28.246460 3.031611
v -11.927116 28.733648 1.559367
v -12.201424 29.205818 -0.296259
v -13.168468 28.238529 3.319449
v -12.691437 29.030733 1.113701
v -13.024635 28.895216 1.479419
v -12.644966 29.105856 0.271948
v -11.495741 29.164738 -2.421274
v -11.270597 28.937630 -2.367023
v -10.356710 29.017214 -3.534639
v -10.083509 29.094225 -3.614882
v -10.437328 29.151949 -3.572207
v -13.953606 27.682865 5.365568
v -13.904331 27.892498 5.415064
v -8.755045 28.641327 -1.666264
v -9.788095 28.620184 -0.132129
v -8.960495 29.161499 -3.624803
v -9.219501 28.695051 -0.056088
v -9.562628 29.232115 -3.340204
v -8.695547 28.718889 -2.948708
v -9.771080 28.496469 0.702269
v -10.587334 28.166285 2.084213
v -11.431940 29.142216 0.230804
v -11.772652 29.044769 1.089145
v -11.327126 29.263639 -0.164886
v -11.839882 28.506041 2.669645
v -10.443010 29.257294 -2.248902
v -9.955465 28.988714 -2.579435
v -11.140955 29.154116 0.761302
v -11.261528 28.456650 2.567688
v -10.881714 28.720312 1.734770
v -9.603439 28.646406 0.683882
vn 0.9136 0.2456 -0.3240
vn 0.9930 -0.1056 0.0527
vn 0.3252 -0.9098 -0.2578
vn -0.0019 -0.9846 -0.1745
vn -0.5428 -0.8147 -0.2041
vn 0.5274 -0.4653 -0.7109
vn 0.2193 0.9745 0.0474
vn 0.1197 0.3340 -0.9349
vn 0.8033 0.5893 -0.0860
vn 0.2352 0.9662 0.1060
vn -0.0163 0.9894 0.1440
vn -0.6775 0.2411 -0.6949
vn -0.9616 0.2709 -0.0443
vn -0.9592 0.1724 0.2239
vn -0.7275 0.6028 0.3276
vn -0.8102 -0.1011 0.5773
vn 0.1150 -0.9102 0.3978
vn -0.3278 -0.9376 -0.1159
vn -0.8402 0.3757 0.3910
vn 0.5576 0.2162 0.8014
vn 0.3512 0.8973 0.2675
vn 0.7746 -0.0368 0.6314
vn 0.9509 -0.3007 0.0738
vn 0.2728 -0.9552 0.1151
vn -0.1818 -0.6236 0.7603
vn -0.1416 -0.9887 0.0493
vn 0.3185 0.3901 0.8639
vn 0.6799 -0.6118 -0.4043
vn 0.9638 -0.1967 -0.1800
vn 0.0143 -0.9774 -0.2109
vn 0.9953 0.0959 0.0113
vn 0.6462 0.7169 -0.2615
vn 0.6779 0.7005 0.2232
vn 0.8835 0.3398 0.3224
vn 0.9407 -0.1282 0.3142
vn 0.1449 0.9553 0.2575
vn 0.3963 0.8601 0.3213
vn -0.4929 0.7937 0.3564
vn 0.4570 0.7818 0.4242
vn -0.9853 0.1681 -0.0318
vn -0.9807 0.1790 0.0785
vn 0.0705 0.9909 0.1143
vn -0.8675 -0.4666 0.1725
vn 0.2147 -0.3347 0.9175
vn 0.1768 0.9278 0.3286
vn 0.4463 -0.8854 -0.1302
vn 0.9846 0.0616 -0.1638
vn 0.5392 -0.7454 -0.3919
vn 0.5392 -0.7453 -0.3922
vn 0.5395 -0.7446 -0.3930
vn 0.3890 -0.8680 0.3085
vn 0.5019 -0.7270 0.4687
vn 0.5812 0.1531 0.7992
vn 0.2375 -0.9704 0.0437
vn -0.2038 -0.9617 -0.1834
vn -0.6760 0.3145 -0.6664
vn -0.0061 0.2996 -0.9540
vn -0.4613 -0.8498 -0.2552
vn 0.4481 -0.2429 -0.8603
vn 0.6066 -0.3528 -0.7124
vn 0.9065 -0.4176 0.0614
vn 0.9825 -0.1864 -0.0063
vn 0.8290 0.4705 0.3024
vn 0.0509 -0.9814 -0.1851
vn 0.3092 0.9440 0.1153
vn 0.3137 0.3404 -0.8864
vn 0.7567 -0.4638 -0.4608
vn 0.7667 -0.6017 0.2238
vn 0.0058 -0.9992 -0.0394
vn -0.4744 -0.8367 -0.2736
vn -0.9664 0.1849 -0.1787
vn -0.3024 -0.8926 -0.3344
vn -0.9694 0.2436 0.0310
vn -0.9148 0.3028 -0.2674
vn 0.0616 0.9893 0.1320
vn 0.2238 0.9421 0.2497
vn -0.6380 0.4213 -0.6446
vn -0.9700 -0.0158 0.2427
vn 0.4708 0.6807 0.5612
vn 0.4575 0.7969 0.3945
vn 0.3101 0.9442 0.1112
vn 0.1648 -0.9498 0.2659
vn 0.5476 -0.4098 0.7295
vn -0.4492 -0.8932 -0.0202
vn 0.6570 -0.3526 0.6664
vn 0.1883 -0.5199 0.8332
vn -0.2725 0.4768 0.8357
vn -0.3409 -0.6990 -0.6287
vn 0.8844 -0.1099 0.4535
vn -0.0478 -0.9883 -0.1448
vn 0.9579 -0.2528 0.1360
vn 0.7544 -0.5903 -0.2873
vn 0.7217 0.6824 0.1158
vn 0.8174 0.4602 0.3465
vn 0.3192 0.8645 0.3882
vn -0.1339 0.3371 -0.9319
vn 0.1182 0.9826 0.1430
vn -0.5215 -0.6815 -0.5133
vn -0.7642 0.4350 -0.4762
vn 0.4639 0.3209 -0.8257
vn -0.5365 -0.7998 -0.2692
vn -0.9392 0.2256 -0.2588
vn -0.3308 -0.8812 -0.3376
vn -0.9506 0.3099 -0.0154
vn -0.0558 -0.9974 -0.0452
vn -0.9247 0.1097 -0.3647
vn 0.5030 0.2721 0.8203
vn -0.0666 0.3542 0.9328
vn -0.4907 -0.5877 0.6433
vn 0.5508 -0.2862 0.7841
vn 0.6014 -0.7223 0.3414
vn -0.1658 0.9777 0.1289
vn 0.8744 0.3370 0.3492
vn 0.9415 -0.2937 0.1653
vn 0.6353 0.7578 0.1488
vn 0.7808 -0.5882 -0.2107
vn 0.8857 -0.0007 0.4643
vn 0.0441 -0.9944 -0.0961
vn 0.6082 -0.7041 0.3665
vn -0.3405 -0.8669 -0.3641
vn -0.3469 -0.9081 -0.2345
vn 0.4408 -0.1044 0.8915
vn 0.3948 -0.4493 0.8014
vn 0.3199 0.8643 0.3881
vn -0.4251 -0.8744 -0.2342
vn -0.7233 0.6805 -0.1175
vn -0.0498 0.9986 0.0179
vn -0.0309 0.9808 0.1927
vn -0.9707 0.2366 -0.0407
vn -0.9424 0.2074 -0.2623
vn -0.7919 0.3506 -0.4999
vn -0.4626 -0.8351 -0.2977
vn -0.2782 -0.6951 -0.6629
vn 0.5915 0.2917 -0.7517
vn -0.3742 0.5602 -0.7390
vn -0.2012 0.3903 0.8984
vn -0.4311 -0.6613 0.6139
vn -0.0306 -0.9834 -0.1788
vn -0.2565 -0.9578 -0.1296
vn 0.9518 -0.2769 0.1319
vn 0.7795 -0.5343 -0.3270
vn 0.2676 0.2708 -0.9247
vn -0.3327 0.3758 -0.8649
vn 0.9210 0.1549 0.3574
vn -0.5898 -0.7430 -0.3164
vn 0.5375 -0.6595 0.5255
vn -0.9528 0.3015 -0.0345
vn -0.7427 0.6121 -0.2717
vn -0.7145 -0.0529 0.6977
vn -0.8191 0.3755 -0.4337
vn -0.4714 -0.8102 -0.3484
vn 0.3165 0.0836 0.9449
vn 0.1218 0.9679 0.2198
vn 0.3643 0.8207 0.4401
vn 0.8148 0.3142 0.4872
vt 0.164282 0.813634
vt 0.187639 0.262635
vt 0.737178 0.540759
vt 0.011086 0.748948
vt 0.817394 0.746776
vt 0.004103 0.202170
vt 0.728549 0.925736
vt 0.711055 0.019718
vt 0.764757 0.894749
vt 0.226947 0.945381
vt 0.956598 0.408420
vt 0.126363 0.524888
vt 0.327548 0.966380
vt -0.000938 0.227930
vt 0.287033 0.454584
vt 0.665814 0.987244
vt 0.672592 0.352725
vt 0.674119 0.419286
vt 0.217175 0.306492
vt 0.288177 0.043082
vt 0.690299 0.079668
vt 0.310810 0.000000
vt 0.027039 0.937674
vt 0.007140 0.508469
vt 0.960444 0.537010
vt 0.661254 0.484536
vt 0.273014 0.471405
vt 0.756705 1.000365
vt 0.998708 0.881185
vt 0.001366 0.555911
vt 0.998464 0.506706
vt 0.368214 1.000000
vt 0.697649 0.712728
vt 0.989447 0.713414
vt 0.655333 0.721142
vt 0.124027 0.301272
vt 0.899190 0.042077
vt 0.999600 0.171004
vt 0.827184 0.093524
vt 0.000000 0.000000
vt 0.996437 0.321798
vt 0.375483 0.000000
vt 0.897834 0.557856
vt 0.883037 0.004670
vt 0.998566 0.439546
vt 0.500425 0.452587
vt 0.972478 0.587898
vt 0.035200 0.565920
vt 0.973008 0.895004
vt 0.129346 0.858932
vt 0.991979 0.249694
vt 0.961330 0.496295
vt 0.826813 0.089627
vt 0.875369 0.565577
vt 0.313318 0.582119
vt 0.745855 0.816512
vt 0.635753 0.000000
vt 0.040520 0.864293
vt 0.875749 0.290083
vt 0.049826 0.358207
vt 0.853870 1.000000
vt 0.082891 0.833148
vt 0.063097 0.082570
vt 0.440930 1.000000
vt 0.595986 0.474284
vt 0.691959 0.252092
vt 0.708073 0.958958
vt 0.011850 0.582305
vt 0.976104 0.591577
vt 0.836274 0.380967
vt 0.858049 0.978416
vt 0.977418 0.009781
vt 0.957207 0.418705
vt 0.388000 0.000000
vt 0.646760 0.000000
vt 0.169418 0.087364
vt 0.832472 0.205529
vt 0.999715 0.221996
vt 0.797812 0.068291
vt 0.342351 0.455653
vt 0.591646 0.987219
vt 0.885164 0.005663
vt 0.159802 0.487144
vt 0.806878 0.994411
vt 0.340553 0.036779
vt 0.655707 0.120118
vt 0.998985 0.018214
vt 0.014739 0.369087
vt 0.997833 0.179330
vt 0.006555 0.845723
vt 0.932724 0.649548
vt 0.994169 0.886274
vt 0.823715 0.010444
vt 0.979991 0.486341
vt 0.869566 0.548374
vt 0.815371 0.378670
vt 0.823341 0.480628
vt 0.812676 0.387728
vt 0.347324 0.650912
vt 0.995300 0.415267
vt 0.602353 0.421244
vt 0.060962 0.832896
vt 0.990440 0.078590
vt 0.983312 0.858158
vt 0.785328 1.000000
vt 0.723065 0.177894
vt 0.072570 0.427041
vt 0.979030 0.418947
vt 0.005257 0.287100
vt 0.287054 0.436922
vt 0.081997 0.884376
vt 0.963753 0.819061
vt 0.020070 0.839129
vt 0.000000 0.463139
vt 0.576685 0.729263
vt 0.931455 0.710606
vt 0.009822 0.690284
vt 0.111508 0.968651
vt 0.958914 0.112833
vt 0.224174 0.546698
vt 0.674783 0.668091
vt 0.212261 0.698905
vt -0.000951 0.277278
vt 0.282196 0.494969
vt 0.731673 0.988766
vt 0.504176 1.000000
vt 0.708040 0.400685
vt 0.041009 0.826378
vt 0.020784 0.152347
vt 0.960242 0.599655
vt 0.743851 0.895095
vt 0.725330 0.040595
vt 0.000000 0.794216
vt 0.964122 0.749474
vt 0.771478 0.911462
vt 0.223563 0.949030
vt 0.318950 1.000000
vt 0.795423 0.527018
vt 0.989718 1.000000
vt 0.215570 0.903646
vt 0.998990 0.181198
vt 0.538098 0.997928
vt 0.320790 0.325241
vt 0.704647 0.486920
vt 0.876430 0.000000
vt 0.766099 0.999022
vt 0.176661 0.428230
vt 0.315617 0.021498
vt 0.697499 0.094201
vt 0.087011 0.298595
vt 0.944896 0.424870
vt 0.082380 0.000000
vt 0.759990 0.453258
vt 0.001546 0.270868
vt 0.999111 0.369204
vt 0.924291 0.682618
vt 0.407011 0.049455
vt 0.968064 0.000000
vt 0.992683 0.263264
vt 0.802658 0.263054
vt 0.814474 0.048229
vt 0.850455 0.495156
vt 1.000000 0.401626
vt 0.622727 0.455795
vt 0.006406 0.892435
vt 0.998134 0.880400
vt 0.930151 0.730095
vt 0.266922 0.635697
vt 0.998702 0.521813
vt 0.817524 0.291614
vt 0.868301 -0.021873
vt 0.979783 0.754580
vt 0.008356 0.749009
vt 0.463616 0.630462
vt 0.771965 0.943289
vt 0.769353 0.071777
vt 0.051469 0.757815
vt 0.885550 0.684574
vt 0.021142 0.229665
vt 0.822402 0.499674
vt 0.129579 0.131989
vt 0.110817 0.923851
vt 0.963989 0.169577
vt 0.702768 0.304476
vt 0.690683 0.981863
vt 0.444942 0.000000
vt 0.241850 0.000000
vt 0.679157 0.144147
vt 0.856490 0.000000
vt 0.201546 0.006035
vt 1.000000 0.000000
vt 0.878204 0.450975
vt 0.992346 0.638457
vt 0.060677 0.556035
vt 0.910088 0.802543
vt 0.089688 0.955145
vt 0.241732 0.000000
vt 0.749044 0.465148
vt -0.001612 0.255317
vt 0.241684 0.500797
vt 0.736172 0.879207
vt 0.256833 0.933881
vt 0.574565 0.990391
vt 0.332324 0.459339
vt 0.318950 1.000000
vt 0.812125 0.489357
vt 0.165220 0.532038
vt 0.853785 0.043590
vt 0.807274 0.997422
vt 0.998957 0.882020
vt 0.001003 0.529589
vt 0.982557 0.451053
vt 0.000828 0.050040
vt 0.995811 0.243170
vt 0.811217 0.303630
vt 0.899628 0.558107
vt 0.992544 0.731650
vt 0.842480 0.248140
vt 0.985458 0.336551
vt 0.472533 0.493517
vt 1.000000 0.388969
vt 0.168183 0.803432
vt 0.992650 0.742024
vt 0.997924 0.154249
vt 0.861799 0.073301
vt 0.413150 0.651316
vt 0.126271 0.142458
vt 0.963743 0.167594
vt 0.167441 0.959741
vt 0.811172 0.374872
vt 0.809038 0.982025
vt 0.647134 0.412049
vt 0.693839 0.966521
vt 0.080368 0.753076
vt 0.041572 0.236675
vt 0.868513 0.659135
vt 0.834841 0.034403
vt 0.669960 0.034403
vt 0.764565 0.848284
vt 0.886196 0.439775
vt 0.318950 1.000000
vt 0.715483 0.768999
vt 0.993182 0.763977
vt 0.131703 0.824743
vt 0.997535 0.115783
vt 0.436340 0.557172
vt 1.000000 0.374653
vt 0.971326 0.325923
vt 0.821213 0.365741
vt 0.990722 0.877999
vt 0.007382 0.864034
vt 0.945667 0.642778
vt 0.028842 0.000000
vt 1.000000 0.000000
vt 0.860780 0.484705
vt 0.408810 0.112576
vt 0.637986 0.077304
vt 0.997835 0.086048
vt 0.000136 0.300608
vt 0.987628 0.270296
vt 0.826881 0.065648
vt 0.190154 0.117699
vt 0.836691 1.000000
vt 0.157852 0.489794
vt 0.575875 1.000000
vt 0.321032 0.524379
vt 0.730914 0.492263
vt 0.237634 -0.010545
vt 0.256073 0.933331
vt 0.753887 0.933866
vt 0.079338 0.817151
vt 0.984019 0.835568
vt -0.001186 0.245116
vt 0.236264 0.498620
vt 0.984289 0.420372
vt 0.040012 0.325626
vt 0.929944 0.472259
vt 0.810882 0.088892
vt 0.890891 0.116092
vt 0.329817 0.582468
vt 0.101055 0.859813
vt 0.701636 1.000000
vt 0.663843 0.260912
vt 0.006364 0.253923
vt 0.217691 0.443340
vt 0.999469 0.454564
vt 0.659295 0.314420
vt 0.625316 0.973135
vt 0.897316 0.386101
vt 0.215498 -0.012852
vt 0.046914 0.732324
vt 0.847382 0.713499
vt 0.016693 0.135616
vt 0.788251 0.884951
vt 0.832967 0.109488
vt 1.001159 0.093521
vt 0.177309 0.728698
vt 0.994399 0.613581
vt 0.729643 0.871443
vt 0.341860 0.805664
vt 0.846541 1.000000
vt 0.160846 0.497919
vt 0.651176 0.039869
vt 0.314171 0.213113
vt 0.997616 0.872722
vt 0.000143 0.369552
vt 0.979957 0.396692
vt 0.692982 0.468139
vt 0.197337 0.922922
vt 0.799490 0.920296
vt 0.888100 0.000000
vt 0.812662 0.194978
vt 0.133122 0.078933
vt 0.687412 0.394999
vt 0.997686 0.312976
vt 0.152283 0.011164
vt 0.941025 0.597224
vt 0.936188 0.001096
vt 0.798353 0.293057
vt 0.824797 0.990846
s 1
usemtl Lesser_coverts
f 6/12/1 2/3/2 1/1/3
f 4/7/4 1/1/3 2/3/2
f 5/10/5 3/6/6 1/2/3
f 6/12/1 1/1/3 3/4/6
f 1/2/3 4/8/4 5/10/5
f 10/19/7 6/13/1 7/14/8
f 7/15/8 6/11/1 3/5/6
f 8/16/9 6/13/1 9/18/10
f 8/17/9 2/3/2 6/12/1
f 6/13/1 10/19/7 9/18/10
f 9/18/10 10/19/7 11/21/11
f 10/19/7 7/14/8 12/24/12
f 10/19/7 12/22/12 11/21/11
f 7/15/8 3/5/6 12/23/12
f 13/26/13 12/25/12 5/9/5
f 12/24/12 3/6/6 5/10/5
f 13/26/13 11/20/11 12/25/12
f 13/26/13 14/27/14 11/20/11
f 13/26/13 5/9/5 14/27/14
f 18/36/15 14/27/14 15/30/16
f 15/29/16 14/28/14 17/34/17
f 14/27/14 5/9/5 16/32/18
f 14/27/14 18/36/15 11/20/11
f 14/28/14 16/33/18 17/34/17
f 18/37/15 20/41/19 19/38/20
f 18/37/15 19/38/20 21/43/21
f 18/36/15 15/30/16 20/40/19
f 21/43/21 11/21/11 18/37/15
f 21/42/21 22/46/22 23/48/23
f 22/45/22 21/43/21 19/38/20
f 9/18/10 21/43/21 8/16/9
f 11/21/11 21/43/21 9/18/10
f 2/3/2 8/17/9 21/44/21
f 21/44/21 23/47/23 2/3/2
f 23/47/23 4/7/4 2/3/2
f 4/7/4 23/47/23 24/49/24
f 24/50/24 23/48/23 22/46/22
f 24/51/24 17/34/17 16/33/18
f 17/35/17 24/50/24 22/46/22
f 16/33/18 4/8/4 24/51/24
f 19/39/20 17/35/17 22/46/22
f 25/52/25 20/41/19 27/54/26
f 20/41/19 25/52/25 26/53/27
f 19/39/20 20/41/19 26/53/27
f 20/41/19 15/31/16 27/54/26
f 25/52/25 27/54/26 19/39/20
f 27/54/26 17/35/17 19/39/20
f 15/31/16 17/35/17 27/54/26
f 26/53/27 25/52/25 19/39/20
f 4/8/4 16/33/18 5/10/5
f 31/62/28 28/55/29 29/56/30
f 32/65/31 29/56/30 28/55/29
f 30/60/32 28/55/29 31/62/28
f 32/65/31 28/55/29 30/60/32
f 33/67/33 32/64/31 30/58/32
f 33/66/33 35/70/34 32/65/31
f 35/70/34 34/69/35 32/65/31
f 34/69/35 29/56/30 32/65/31
f 35/71/34 33/67/33 37/77/36
f 34/69/35 35/70/34 36/72/37
f 35/71/34 37/77/36 36/73/37
f 42/87/38 38/78/39 37/77/36
f 38/78/39 36/73/37 37/77/36
f 37/76/36 39/80/40 40/83/41
f 39/80/40 37/76/36 41/85/42
f 42/87/38 37/77/36 40/82/41
f 41/86/42 37/77/36 33/67/33
f 42/89/38 43/91/43 45/94/44
f 42/88/38 40/83/41 43/90/43
f 38/79/39 42/89/38 44/93/45
f 45/94/44 44/93/45 42/89/38
f 45/94/44 43/91/43 48/97/46
f 47/96/47 44/93/45 45/94/44
f 47/96/48 46/95/49 45/94/50
f 48/97/46 47/96/47 45/94/44
f 49/98/51 44/93/45 48/97/46
f 44/93/45 47/96/47 48/97/46
f 49/98/51 48/97/46 43/91/43
f 49/98/51 38/79/39 44/93/45
f 43/91/43 50/99/52 49/98/51
f 50/99/52 51/101/53 49/98/51
f 51/101/53 38/79/39 49/98/51
f 36/74/37 51/101/53 34/68/35
f 51/101/53 50/99/52 34/68/35
f 51/101/53 36/75/37 38/79/39
f 52/103/54 50/100/52 40/84/41
f 34/68/35 50/99/52 52/102/54
f 43/92/43 40/84/41 50/100/52
f 53/105/55 29/56/30 52/104/54
f 52/103/54 40/84/41 53/106/55
f 29/56/30 34/69/35 52/104/54
f 53/106/55 31/63/28 29/57/30
f 39/81/40 31/63/28 53/106/55
f 40/84/41 39/81/40 53/106/55
f 41/85/42 54/108/56 39/80/40
f 41/86/42 55/109/57 54/107/56
f 30/58/32 55/109/57 41/86/42
f 41/86/42 33/67/33 30/58/32
f 56/111/58 55/110/57 57/115/59
f 56/111/58 54/107/56 55/110/57
f 55/110/57 30/59/32 57/115/59
f 57/114/59 31/63/28 56/113/58
f 31/61/28 57/115/59 58/116/60
f 30/59/32 58/116/60 57/115/59
f 31/62/28 58/117/60 30/60/32
f 56/112/58 39/80/40 54/108/56
f 56/113/58 31/63/28 39/81/40
f 60/121/61 59/120/62 63/127/63
f 65/131/64 59/120/62 60/121/61
f 61/122/65 63/126/63 59/118/62
f 61/122/65 59/118/62 62/123/66
f 64/130/67 62/124/66 59/119/62
f 59/120/62 65/131/64 64/128/67
f 66/134/68 69/139/69 65/131/64
f 66/134/68 65/131/64 60/121/61
f 67/136/70 64/129/67 65/132/64
f 65/132/64 70/142/71 67/136/70
f 68/138/72 65/132/64 69/141/69
f 70/142/71 65/132/64 68/138/72
f 72/147/73 70/143/71 68/137/72
f 71/144/74 70/143/71 73/148/75
f 71/144/74 67/135/70 70/143/71
f 70/143/71 72/147/73 73/148/75
f 75/153/76 73/149/75 72/145/73
f 71/144/74 73/148/75 74/151/77
f 74/150/77 73/149/75 61/122/65
f 75/153/76 61/122/65 73/149/75
f 72/147/73 76/154/78 75/152/76
f 78/159/79 75/153/76 76/155/78
f 77/156/80 63/125/63 75/153/76
f 78/159/79 77/156/80 75/153/76
f 63/126/63 61/122/65 75/153/76
f 78/160/79 79/161/81 80/162/82
f 76/155/78 79/161/81 78/160/79
f 81/163/83 77/156/80 78/159/79
f 81/164/83 78/160/79 80/162/82
f 82/167/84 81/164/83 80/162/82
f 69/140/69 81/164/83 82/167/84
f 81/164/83 69/140/69 83/168/85
f 77/157/80 81/164/83 83/168/85
f 83/168/85 69/140/69 66/133/68
f 83/169/85 63/127/63 77/158/80
f 66/134/68 63/127/63 83/169/85
f 68/138/72 82/166/84 72/146/73
f 72/147/73 82/165/84 76/154/78
f 69/141/69 82/166/84 68/138/72
f 80/162/82 76/155/78 82/167/84
f 79/161/81 84/170/86 80/162/82
f 76/155/78 80/162/82 84/170/86
f 84/170/86 79/161/81 85/171/87
f 76/155/78 84/170/86 85/171/87
f 79/161/81 76/155/78 85/171/87
f 62/124/66 86/173/88 74/150/77
f 74/151/77 86/172/88 67/135/70
f 61/122/65 62/123/66 74/150/77
f 71/144/74 74/151/77 67/135/70
f 86/173/88 64/129/67 67/136/70
f 86/173/88 62/124/66 64/130/67
f 63/127/63 66/134/68 60/121/61
f 90/180/89 88/175/90 87/174/91
f 89/177/92 87/174/91 88/175/90
f 87/174/91 89/177/92 91/181/93
f 90/180/89 87/174/91 92/184/94
f 91/181/93 92/184/94 87/174/91
f 90/180/89 92/184/94 94/189/95
f 95/194/96 93/188/97 92/185/94
f 93/188/97 94/192/95 92/185/94
f 92/185/94 91/182/93 95/194/96
f 89/179/92 96/196/98 95/194/96
f 96/195/98 97/198/99 95/193/96
f 93/188/97 95/194/96 97/197/99
f 95/194/96 91/182/93 98/199/100
f 98/200/100 89/178/92 95/194/96
f 89/178/92 98/200/100 91/183/93
f 97/198/99 96/195/98 99/201/101
f 99/201/101 100/204/102 97/198/99
f 97/198/99 100/204/102 93/186/97
f 100/203/102 88/176/90 101/206/103
f 100/204/102 101/205/103 102/207/104
f 88/176/90 100/203/102 99/202/101
f 100/204/102 102/207/104 93/187/97
f 105/217/105 103/210/106 102/209/104
f 104/213/107 102/207/104 103/211/106
f 94/192/95 93/188/97 102/208/104
f 94/192/95 102/208/104 104/215/107
f 102/209/104 101/206/103 105/217/105
f 106/218/108 105/216/105 104/215/107
f 106/218/108 107/219/109 105/216/105
f 105/216/105 107/219/109 103/212/106
f 104/215/107 105/216/105 108/220/110
f 108/220/110 105/216/105 109/222/111
f 105/217/105 101/206/103 109/224/111
f 94/190/95 108/220/110 109/222/111
f 88/175/90 90/180/89 109/223/111
f 90/180/89 94/191/95 109/223/111
f 109/224/111 101/206/103 88/176/90
f 104/214/107 108/221/110 94/192/95
f 106/218/108 110/225/112 107/219/109
f 103/212/106 107/219/109 110/225/112
f 110/225/112 104/215/107 103/212/106
f 110/225/112 106/218/108 104/215/107
f 99/202/101 96/196/98 89/179/92
f 99/202/101 89/179/92 88/176/90
f 114/232/113 111/226/114 112/227/115
f 111/226/114 115/234/116 112/227/115
f 113/230/117 111/226/114 114/232/113
f 113/230/117 116/239/118 111/226/114
f 116/239/118 115/234/116 111/226/114
f 119/245/119 117/240/120 116/237/118
f 117/240/120 118/242/121 116/238/118
f 116/238/118 118/242/121 115/235/116
f 116/239/118 113/230/117 119/243/119
f 121/249/122 119/244/119 120/246/123
f 123/253/124 120/246/123 119/244/119
f 113/230/117 123/254/124 119/243/119
f 121/249/122 122/252/125 119/244/119
f 117/240/120 119/245/119 122/250/125
f 121/248/122 120/247/123 123/255/124
f 123/255/124 125/258/126 121/248/122
f 124/257/127 123/255/124 114/233/113
f 113/231/117 114/233/113 123/255/124
f 124/257/127 126/261/128 123/255/124
f 125/258/126 123/255/124 126/261/128
f 127/264/129 125/259/126 126/262/128
f 126/262/128 124/256/127 128/266/130
f 128/266/130 127/264/129 126/262/128
f 129/267/131 128/266/130 124/256/127
f 130/270/132 128/266/130 129/267/131
f 118/242/121 128/265/130 130/269/132
f 128/266/130 118/241/121 127/264/129
f 130/269/132 115/235/116 118/242/121
f 130/269/132 131/271/133 115/235/116
f 129/267/131 131/272/133 130/270/132
f 132/274/134 115/236/116 131/271/133
f 132/274/134 131/271/133 133/276/135
f 131/272/133 129/267/131 133/275/135
f 129/268/131 124/257/127 133/276/135
f 112/229/115 133/276/135 124/257/127
f 132/273/134 133/276/135 112/229/115
f 115/236/116 132/274/134 112/228/115
f 117/240/120 122/250/125 127/263/129
f 117/240/120 127/263/129 118/242/121
f 127/264/129 122/251/125 125/259/126
f 135/278/136 121/249/122 125/260/126
f 135/278/136 125/260/126 134/277/137
f 122/252/125 134/277/137 125/260/126
f 135/278/136 134/277/137 121/249/122
f 134/277/137 122/252/125 121/249/122
f 112/229/115 124/257/127 114/233/113
f 142/294/138 137/282/139 136/280/140
f 141/291/141 136/280/140 137/282/139
f 138/284/142 140/290/143 136/281/140
f 141/292/141 138/285/142 136/279/140
f 136/280/140 139/287/144 142/294/138
f 139/288/144 136/281/140 140/290/143
f 144/299/145 137/283/139 142/295/138
f 143/298/146 142/294/138 139/287/144
f 144/299/145 142/295/138 143/296/146
f 144/300/145 145/302/147 146/304/148
f 147/305/149 145/301/147 144/299/145
f 144/300/145 146/304/148 148/308/150
f 147/305/149 144/299/145 143/296/146
f 137/283/139 144/299/145 149/309/151
f 148/308/150 149/310/151 144/300/145
f 141/293/141 137/283/139 149/309/151
f 149/309/151 138/285/142 141/293/141
f 148/308/150 140/289/143 149/310/151
f 138/286/142 149/310/151 140/289/143
f 140/289/143 148/308/150 146/304/148
f 147/307/149 151/314/152 150/311/153
f 145/302/147 147/306/149 150/313/153
f 147/307/149 143/297/146 151/314/152
f 152/316/154 151/314/152 143/297/146
f 152/317/154 150/312/153 151/315/152
f 152/317/154 153/320/155 150/312/153
f 143/298/146 153/319/155 152/318/154
f 153/319/155 143/298/146 139/287/144
f 153/320/155 139/288/144 150/312/153
f 140/290/143 150/312/153 139/288/144
f 146/303/148 150/312/153 140/290/143
f 150/313/153 146/304/148 145/302/147
