# Blender 3.5.1
# www.blender.org
mtllib D2.mtl
o D2
v -6.879845 28.548216 -3.668997
v -8.155853 28.875471 -3.497911
v -7.400326 28.567755 -1.702084
v -7.207491 28.896271 -4.475326
v -6.963293 28.926003 -4.426302
v -8.280672 28.488573 -0.406117
v -9.242842 28.623083 -0.154653
v -9.777704 29.066248 -0.845288
v -8.354115 28.480156 0.069322
v -9.249140 28.147131 1.106946
v -10.351671 28.471930 1.431106
v -9.127514 28.829514 0.089522
v -9.827242 28.446152 1.452763
v -10.187721 28.465555 1.554284
v -10.190876 28.842024 0.439754
v -9.555880 29.160326 -1.106980
v -7.522968 29.029243 -4.341926
v -8.408766 29.074148 -3.443599
v -7.913198 28.644054 -0.617497
v -4.924639 28.390362 -4.701697
v -5.489204 28.432899 -3.068322
v -5.841579 28.624338 -4.919774
v -4.940365 28.682894 -5.604708
v -6.701332 28.398376 -1.130700
v -4.896921 28.757862 -5.563657
v -7.552570 28.696220 -1.823689
v -8.427059 28.846979 -1.255422
v -7.613743 28.999395 -2.642124
v -7.779673 28.103994 0.116251
v -6.540773 28.548819 -1.150569
v -8.004696 28.173824 0.333752
v -8.922064 28.439293 0.338902
v -8.393753 28.319914 0.484932
v -8.806879 28.400471 0.416049
v -9.932060 28.154770 2.602735
v -10.038792 28.008543 2.502230
v -8.738052 28.430485 0.505212
v -7.678059 28.794167 -0.982219
v -6.196913 28.864216 -4.857178
v -5.243271 28.770638 -5.587703
v -3.963150 28.398598 -3.753897
v -4.299118 28.408915 -2.867685
v -3.827625 28.667027 -4.533675
v -5.814590 28.408104 -0.763170
v -4.062756 28.697350 -4.692359
v -6.180275 28.544687 -1.311398
v -4.906979 28.613575 -3.939903
v -7.034988 28.865948 -1.500917
v -5.027933 28.790958 -4.078679
v -6.387463 28.941557 -2.081005
v -5.255743 28.555897 -1.220397
v -6.828299 28.834122 -0.944673
v -5.865353 28.456495 -0.511434
v -7.536322 28.415359 0.459977
v -6.848932 28.122572 0.313216
v -7.771744 28.415169 0.402302
v -7.816029 28.437145 0.197239
v -3.826111 28.481960 -2.285348
v -5.750666 28.605139 -0.803158
v -4.034956 28.588547 -3.207176
v -5.570765 28.618484 0.225849
v -5.621069 28.490040 0.153424
v -3.456009 28.719101 -3.261395
v -5.884151 28.930929 -1.143659
v -5.507269 28.875341 -2.058881
v -3.895340 28.743982 -3.568403
v -6.548302 28.728367 -0.704473
v -7.156773 28.437069 0.429878
v -7.181065 28.447292 0.633892
v -6.717171 28.180182 0.952026
v -6.463596 28.677553 0.243544
v -7.078814 28.436525 0.774087
v -8.475229 27.994598 2.333696
v -8.450996 28.211233 2.440321
v -8.464931 28.141205 2.335539
v -8.456099 28.067423 2.464550
vn -0.4614 -0.8167 -0.3465
vn -0.1060 -0.2244 -0.9687
vn 0.8129 -0.5803 -0.0486
vn -0.0640 -0.9914 -0.1144
vn 0.9218 -0.2104 0.3257
vn 0.7372 0.2142 -0.6408
vn 0.5441 -0.6564 0.5226
vn -0.2689 -0.8968 -0.3514
vn -0.9466 0.0708 -0.3145
vn 0.8089 -0.1153 0.5765
vn -0.9254 -0.0846 0.3693
vn -0.2539 0.0209 0.9670
vn 0.2643 0.8971 0.3541
vn 0.3596 0.3114 0.8796
vn -0.8592 0.5088 -0.0545
vn -0.2691 0.9583 -0.0961
vn 0.7978 0.4058 0.4459
vn -0.4894 0.4807 -0.7276
vn -0.7577 0.3783 -0.5318
vn 0.8057 -0.5876 0.0749
vn 0.7562 0.5121 -0.4073
vn 0.8812 -0.0925 0.4636
vn 0.3212 -0.9371 0.1365
vn -0.3007 -0.9202 -0.2505
vn -0.3937 -0.8421 -0.3687
vn 0.3576 -0.4466 -0.8202
vn -0.8944 0.2808 -0.3481
vn 0.3743 -0.8403 0.3921
vn -0.7744 0.4403 -0.4543
vn 0.7890 0.3090 0.5309
vn 0.3109 -0.3749 0.8734
vn -0.9711 0.0891 -0.2216
vn 0.1406 -0.1517 0.9784
vn -0.0622 -0.9921 -0.1090
vn -0.6988 -0.5394 0.4698
vn 0.1000 0.2588 0.9607
vn -0.1026 0.2577 0.9608
vn 0.1577 0.9486 0.2744
vn -0.7210 0.3600 -0.5921
vn -0.3697 0.2368 -0.8985
vn 0.8437 0.0895 -0.5293
vn 0.8466 -0.3400 0.4094
vn 0.7795 -0.6158 0.1146
vn 0.1723 -0.9842 0.0405
vn 0.0826 0.1310 -0.9879
vn -0.2139 -0.9543 -0.2086
vn -0.3598 -0.8673 -0.3440
vn -0.8683 0.2231 -0.4430
vn -0.5872 0.3749 -0.7174
vn -0.0999 0.9907 -0.0926
vn -0.0009 0.9752 0.2214
vn 0.7795 0.2666 0.5669
vn 0.7349 0.1024 0.6705
vn -0.1036 0.2854 0.9528
vn 0.3034 -0.6379 0.7078
vn -0.8108 0.0623 0.5820
vn -0.9954 0.0661 -0.0701
vn -0.1451 -0.9702 -0.1941
vn 0.7804 -0.4812 0.3994
vn 0.4429 -0.8533 0.2752
vn -0.1769 -0.9258 -0.3340
vn 0.0885 0.1177 -0.9891
vn 0.9409 0.0855 -0.3278
vn 0.6204 0.3729 0.6899
vn -0.1116 0.9937 -0.0118
vn -0.7034 0.2443 -0.6674
vn -0.8646 0.0814 -0.4959
vn -0.8988 -0.1968 -0.3917
vn -0.2631 0.9643 0.0308
vn 0.0013 -0.5000 0.8660
vn -0.0608 0.9462 0.3177
vn -0.3994 0.2693 0.8763
vn -0.2200 0.4897 0.8437
vn -0.4463 -0.8476 0.2870
vn -0.9069 0.3121 -0.2831
vn -0.9919 0.0541 0.1145
vn -0.9919 0.0545 0.1147
vt 0.115763 0.138782
vt 0.146431 0.709449
vt 0.886287 0.687795
vt 0.245406 0.933111
vt 0.749682 0.874001
vt 0.486485 0.535011
vt 0.087549 0.926448
vt 0.987904 0.843060
vt 0.949325 0.847063
vt 0.093885 0.207569
vt 0.526860 0.000000
vt 0.003618 0.391884
vt 0.322849 0.419054
vt 0.762879 0.062803
vt 0.768592 0.926454
vt 0.826281 0.556038
vt 0.614461 0.944383
vt 0.263724 0.653531
vt 0.851239 1.000000
vt 0.837214 0.177069
vt 0.857022 0.967389
vt 1.002562 0.092305
vt 0.992071 0.586530
vt 1.000000 0.850394
vt 0.188068 0.717654
vt 0.921049 0.542912
vt 0.003465 0.767039
vt 0.992798 0.804773
vt 0.915681 0.000000
vt 0.858821 0.478943
vt 0.620530 0.300105
vt 0.997312 0.397482
vt 0.822159 0.332688
vt 0.000000 0.067666
vt 1.000000 0.184512
vt 0.900729 0.073532
vt 0.108310 0.436656
vt 0.313519 0.135085
vt 0.722619 0.082549
vt 0.904858 0.439038
vt 0.237570 0.003837
vt 0.702687 0.453803
vt 0.697951 0.331543
vt 0.692542 0.954395
vt 0.058611 0.772096
vt 0.915880 0.749022
vt 0.034992 0.150000
vt 0.961553 0.060776
vt 0.383837 0.642680
vt 0.119842 0.930067
vt 0.197470 0.943364
vt 0.811863 0.918471
vt 0.086991 0.770869
vt 1.000000 0.541463
vt 0.110305 0.623007
vt 0.772846 0.060595
vt 0.757592 0.839844
vt 0.008963 0.214910
vt 0.739629 0.000000
vt 0.189111 0.326338
vt 0.304806 0.993527
vt 0.733082 0.645107
vt 0.143990 0.285765
vt 0.840615 0.994604
vt 0.881771 0.071919
vt 0.311664 0.335201
vt 0.681245 0.083231
vt 0.993092 0.821939
vt 0.093845 0.807662
vt 1.003200 0.128638
vt 0.749629 0.340965
vt 0.758899 0.973716
vt 1.001942 0.525012
vt 0.234535 0.660258
vt 0.966498 0.761413
vt 0.993187 0.908022
vt 0.937826 0.519580
vt 0.620814 0.495610
vt 0.997146 0.376892
vt 0.876709 0.558854
vt 0.834052 0.242358
vt 0.993585 0.449740
vt 0.825747 0.148068
vt 1.000000 0.190337
vt 0.839118 0.410054
vt 0.507976 0.000000
vt 0.735029 0.452261
vt 0.950790 0.352115
vt 0.023353 0.161645
vt 0.868786 0.769421
vt 0.034466 0.861706
vt 0.044041 0.240580
vt 1.007215 0.588864
vt 0.226180 0.745957
vt 0.117057 0.957179
vt 0.203138 0.431218
vt 0.000000 0.883870
vt 0.002433 0.284149
vt 0.770170 0.029382
vt 0.774803 0.917516
vt 0.974143 0.448312
vt 0.008283 0.419131
vt 0.735340 0.581284
vt 0.241418 0.942280
vt 0.752819 0.891930
vt 0.615439 1.000000
vt 0.207220 0.532158
vt 0.839051 0.996460
vt 0.729241 0.435551
vt 0.199685 -0.002053
vt 0.659229 0.042496
vt 0.305601 0.106986
vt 0.626843 0.386503
vt 0.499459 0.987291
vt 0.837247 0.255260
vt 0.153123 0.081035
vt 0.830533 0.965815
vt 0.804489 0.422330
vt 0.998626 0.219483
vt 0.932876 0.000000
vt 0.770978 0.312949
vt 0.069305 0.000000
vt 0.153872 0.733436
vt 1.001077 0.273810
vt 0.989688 0.771950
vt 0.856714 0.514194
vt 0.000649 0.244289
vt 0.962273 0.517802
vt 0.993371 0.855252
vt 0.064876 0.176409
vt 0.071116 0.750112
vt 0.276068 1.000000
vt 0.481541 0.948393
vt 0.720157 0.578193
vt 0.167842 0.953955
vt 0.819023 0.908092
vt 0.597655 0.923566
vt 0.791527 0.920803
vt 0.743056 0.365719
vt 0.768762 0.942012
vt 0.790689 0.047647
vt 0.280284 0.326448
vt 0.126718 0.066266
vt 0.019909 0.391158
vt 0.155463 0.173111
vt 0.755747 0.174265
vt 0.230975 0.120555
vt 0.386614 0.434181
vt 0.088177 0.173972
vt 0.850297 0.458808
vt 0.122337 0.434767
vt 0.848829 0.989910
vt 0.931187 0.026435
vt 0.991120 0.904672
vt 0.944533 0.574000
vt 1.000000 0.141475
vt 0.949704 0.000000
vt 0.268356 0.693459
vt 0.990397 0.638488
vt 0.993175 0.444482
vt 0.944050 0.000000
vt 0.902899 0.053253
vt 0.290057 -0.002001
vt 0.911686 0.545692
vt 0.996177 0.385804
vt 0.777267 0.421319
vt 0.987350 0.478913
vt 0.792534 0.003985
vt 1.000000 0.066216
vt 0.840702 0.380432
s 1
usemtl Lesser_coverts
f 2/4/1 4/7/2 1/1/3
f 1/1/3 6/14/4 2/4/1
f 6/15/4 1/2/3 3/6/5
f 5/10/6 3/6/5 1/2/3
f 4/9/2 5/13/6 1/3/3
f 6/14/4 10/22/7 7/16/8
f 7/16/8 8/17/9 6/14/4
f 6/14/4 8/17/9 2/4/1
f 6/15/4 9/20/10 10/23/7
f 9/20/10 6/15/4 3/6/5
f 11/28/11 7/16/8 10/22/7
f 11/26/11 10/25/7 14/33/12
f 10/23/7 9/20/10 12/29/13
f 10/24/7 12/30/13 13/32/14
f 10/25/7 13/31/14 14/33/12
f 14/34/12 15/37/15 11/27/11
f 13/32/14 15/36/15 14/35/12
f 15/36/15 12/30/13 16/39/16
f 8/18/9 15/37/15 16/38/16
f 12/30/13 15/36/15 13/32/14
f 11/27/11 15/37/15 8/18/9
f 19/44/17 17/41/18 16/39/16
f 17/40/18 18/42/19 16/38/16
f 16/38/16 18/42/19 8/18/9
f 16/39/16 12/30/13 19/44/17
f 9/20/10 3/6/5 19/43/17
f 19/43/17 3/6/5 5/11/6
f 9/21/10 19/44/17 12/30/13
f 17/41/18 19/44/17 5/12/6
f 18/42/19 2/5/1 8/18/9
f 18/42/19 17/40/18 2/5/1
f 4/8/2 2/5/1 17/40/18
f 17/41/18 5/13/6 4/9/2
f 11/28/11 8/19/9 7/16/8
f 20/46/20 25/60/21 21/48/22
f 21/49/22 24/57/23 20/45/20
f 26/62/24 22/51/25 20/47/20
f 20/47/20 22/51/25 23/53/26
f 23/55/26 25/60/21 20/46/20
f 26/62/24 20/47/20 24/56/23
f 27/64/27 26/62/24 29/70/28
f 27/63/27 28/66/29 26/61/24
f 22/52/25 26/61/24 28/66/29
f 24/56/23 29/70/28 26/62/24
f 29/68/28 30/71/30 31/73/31
f 24/57/23 30/71/30 29/68/28
f 32/77/32 29/69/28 31/74/31
f 32/76/32 27/64/27 29/70/28
f 32/77/32 33/78/33 34/80/34
f 32/77/32 31/74/31 33/78/33
f 36/82/35 32/77/32 34/80/34
f 37/83/36 32/77/32 35/81/37
f 36/82/35 35/81/37 32/77/32
f 27/65/27 32/77/32 37/84/36
f 37/83/36 35/81/37 34/80/34
f 38/85/38 27/65/27 37/84/36
f 34/80/34 33/78/33 37/83/36
f 38/85/38 37/84/36 33/79/33
f 38/85/38 33/79/33 31/75/31
f 38/85/38 31/75/31 30/72/30
f 38/85/38 28/67/29 27/65/27
f 38/85/38 30/72/30 28/67/29
f 36/82/35 34/80/34 35/81/37
f 24/57/23 21/49/22 30/71/30
f 21/50/22 28/67/29 30/72/30
f 39/87/39 22/52/25 28/66/29
f 21/50/22 25/58/21 28/67/29
f 39/86/39 28/67/29 25/58/21
f 39/87/39 40/88/40 22/52/25
f 40/88/40 39/87/39 25/59/21
f 23/54/26 22/52/25 40/88/40
f 25/60/21 23/55/26 40/89/40
f 43/96/41 42/93/42 41/90/43
f 41/91/43 42/94/42 44/100/44
f 45/102/45 43/97/41 41/92/43
f 41/92/43 44/99/44 46/103/46
f 41/92/43 47/104/47 45/102/45
f 46/103/46 47/104/47 41/92/43
f 47/104/47 46/103/46 48/106/48
f 49/109/49 47/105/47 48/107/48
f 49/109/49 45/101/45 47/105/47
f 48/107/48 50/112/50 49/109/49
f 50/111/50 43/98/41 49/110/49
f 43/98/41 45/102/45 49/110/49
f 52/115/51 51/114/52 50/111/50
f 43/98/41 50/111/50 51/114/52
f 50/112/50 48/107/48 52/116/51
f 53/117/53 51/114/52 52/115/51
f 54/119/54 53/117/53 52/115/51
f 52/116/51 48/107/48 54/122/54
f 55/125/55 53/118/53 54/120/54
f 55/123/55 54/121/54 56/126/56
f 56/126/56 54/121/54 57/128/57
f 54/122/54 48/107/48 57/127/57
f 57/128/57 55/123/55 56/126/56
f 46/103/46 55/124/55 57/129/57
f 57/129/57 48/108/48 46/103/46
f 55/124/55 46/103/46 44/99/44
f 55/125/55 44/100/44 53/118/53
f 51/113/52 53/118/53 42/94/42
f 42/94/42 53/118/53 44/100/44
f 43/98/41 51/114/52 42/95/42
f 59/134/58 58/130/59 62/141/60
f 58/130/59 59/134/58 60/135/61
f 60/136/61 66/149/62 63/142/63 58/130/59
f 58/131/59 61/139/64 62/140/60
f 61/139/64 58/131/59 63/143/63
f 64/146/65 61/137/64 63/144/63
f 64/146/65 63/144/63 65/147/66
f 66/149/62 65/147/66 63/144/63
f 65/148/66 66/150/62 60/136/61
f 67/151/67 65/148/66 59/132/58
f 60/136/61 59/133/58 65/148/66
f 65/148/66 67/151/67 64/145/65
f 68/155/68 69/157/69 67/153/67
f 70/160/70 68/154/68 67/152/67
f 71/164/71 64/146/65 67/153/67
f 70/160/70 67/152/67 59/134/58
f 69/157/69 71/161/71 67/153/67
f 61/138/64 64/146/65 71/164/71
f 61/139/64 71/162/71 70/159/70
f 71/163/71 72/166/72 70/158/70
f 71/164/71 69/156/69 72/165/72
f 72/166/72 69/157/69 74/168/73
f 73/167/74 68/155/68 72/166/72
f 72/166/72 68/155/68 70/158/70
f 74/168/73 73/167/74 72/166/72
f 75/169/75 74/168/73 69/157/69
f 73/167/74 74/168/73 75/169/75
f 74/168/76 73/167/77 76/170/77
f 68/155/68 73/167/74 75/169/75
f 75/169/75 69/157/69 68/155/68
f 70/159/70 62/140/60 61/139/64
f 62/141/60 70/160/70 59/134/58
